<svg width="10" height="18" viewBox="0 0 10 18" fill="none" xmlns="http://www.w3.org/2000/svg">
<path d="M10 1.5C10 0.672 9.36 0 8.57143 0H1.42857C0.64 0 0 0.672 0 1.5V16.5C0 17.328 0.64 18 1.42857 18H8.57143C9.36 18 10 17.328 10 16.5V1.5ZM3.92857 1.5H6.07143C6.26857 1.5 6.42857 1.668 6.42857 1.875C6.42857 2.082 6.26857 2.25 6.07143 2.25H3.92857C3.73143 2.25 3.57143 2.082 3.57143 1.875C3.57143 1.668 3.73143 1.5 3.92857 1.5ZM5 16.5C4.605 16.5 4.28571 16.164 4.28571 15.75C4.28571 15.336 4.605 15 5 15C5.39429 15 5.71357 15.336 5.71357 15.75C5.71357 16.164 5.39429 16.5 5 16.5ZM8.57143 14.25H1.42857V3.732H8.57143V14.25Z" fill="#757575"/>
</svg>
