<svg width="9" height="18" viewBox="0 0 9 18" fill="none" xmlns="http://www.w3.org/2000/svg">
<path d="M4.5 0C2.139 0 0 1.91475 0 4.2765C0 6.6375 1.9515 9.45675 4.5 13.5C7.0485 9.45675 9 6.6375 9 4.2765C9 1.91475 6.86175 0 4.5 0ZM4.5 6C3.67125 6 3 5.32875 3 4.5C3 3.67125 3.67125 3 4.5 3C5.32875 3 6 3.67125 6 4.5C6 5.32875 5.32875 6 4.5 6ZM7.5 16.875C7.5 17.496 6.1575 18 4.5 18C2.8425 18 1.5 17.496 1.5 16.875C1.5 16.254 2.8425 15.75 4.5 15.75C6.1575 15.75 7.5 16.254 7.5 16.875Z" fill="#757575"/>
</svg>
