<svg width="20" height="16" viewBox="0 0 20 16" fill="none" xmlns="http://www.w3.org/2000/svg">
<path fill-rule="evenodd" clip-rule="evenodd" d="M15.32 15.8233C15.5883 16.0057 15.9341 16.0513 16.2425 15.9393C16.5508 15.8265 16.7775 15.5737 16.8458 15.2673C17.5699 12.0001 19.3266 3.73052 19.9857 0.758519C20.0357 0.534519 19.9524 0.301719 19.7691 0.152119C19.5857 0.00251863 19.3316 -0.0406815 19.1049 0.0401186C15.6108 1.28172 4.85022 5.15772 0.451988 6.72013C0.172828 6.81933 -0.00883492 7.07693 0.000331537 7.35933C0.0103313 7.64253 0.20866 7.88813 0.494487 7.97053C2.46694 8.53693 5.05605 9.32493 5.05605 9.32493C5.05605 9.32493 6.26602 12.8329 6.89684 14.6169C6.97601 14.8409 7.1585 15.0169 7.39933 15.0777C7.63932 15.1377 7.89599 15.0745 8.07515 14.9121C9.08846 13.9937 10.6551 12.5737 10.6551 12.5737C10.6551 12.5737 13.6317 14.6689 15.32 15.8233ZM6.14519 8.88173L7.54433 13.3121L7.85515 10.5065C7.85515 10.5065 13.2609 5.82573 16.3425 3.15772C16.4325 3.07932 16.445 2.94812 16.37 2.85612C16.2958 2.76412 16.1591 2.74252 16.0566 2.80492C12.485 4.99452 6.14519 8.88173 6.14519 8.88173Z" fill="#757575"/>
</svg>
