<svg width="16" height="24" viewBox="0 0 16 24" fill="none" xmlns="http://www.w3.org/2000/svg">
<path fill-rule="evenodd" clip-rule="evenodd" d="M10.1994 4.08247L8 0L5.80057 4.08247H7.74603V5.07217H5.80057L7.74603 8.68324V9.89691H6.22222V10.457L0.974308 16.4588L0 15.9357V20.4354L0.92563 19.9385L6.22222 23.0287V24H9.77778V22.9868L15.0369 19.9184L16 20.4354V15.9357L15.0257 16.4588L9.77778 10.457V9.89691H8.25397V8.68324L10.1994 5.07217H8.25397V4.08247H10.1994ZM6.22222 22.4596V20.2887H7.74603V19.3663L5.37064 17.0521L7.74603 14.738V13.6082H6.22222V11.2201L1.42838 16.7026L4.19048 18.1856L1.43364 19.6657L6.22222 22.4596ZM14.5289 19.6456L9.77778 22.4176V20.2887H8.25397V19.3663L10.6294 17.0521L8.25397 14.738V13.6082H9.77778V11.2201L14.5716 16.7026L11.8095 18.1856L14.5289 19.6456Z" fill="#666666"/>
</svg>
