<svg width="24" height="20" viewBox="0 0 24 20" fill="none" xmlns="http://www.w3.org/2000/svg">
<path d="M1.04348 11.4286H0V10H1.04348V11.4286ZM24 10H22.9565V11.4286H24V10ZM3.13043 8.57143H2.08696V12.8571H3.13043V8.57143ZM21.913 8.57143H20.8696V12.8571H21.913V8.57143ZM7.30435 8.57143H6.26087V12.8571H7.30435V8.57143ZM17.7391 7.14286H16.6957V14.2857H17.7391V7.14286ZM5.21739 7.14286H4.17391V14.2857H5.21739V7.14286ZM19.8261 5.71429H18.7826V15.7143H19.8261V5.71429ZM9.3913 5.71429H8.34783V15.7143H9.3913V5.71429ZM11.4783 2.85714H10.4348V17.1429H11.4783V2.85714ZM15.6522 2.85714H14.6087V17.1429H15.6522V2.85714ZM13.5652 0H12.5217V20H13.5652V0Z" fill="#666666"/>
</svg>
